<?plantuml 1.2026.2?><svg xmlns="http://www.w3.org/2000/svg" xmlns:xlink="http://www.w3.org/1999/xlink" contentStyleType="text/css" data-diagram-type="DESCRIPTION" height="2034.375px" preserveAspectRatio="none" style="width:1346px;height:2034px;background:#FFFFFF;" version="1.1" viewBox="0 0 1346 2034" width="1346.875px" zoomAndPan="magnify"><title>zillow-public-data Refresh Pipeline</title><defs/><g><g class="title" data-source-line="5"><text fill="#000000" font-family="sans-serif" font-size="21.875" font-weight="bold" lengthAdjust="spacing" textLength="374.4166" x="474.5105" y="39.0093">zillow-public-data Refresh Pipeline</text></g><!--cluster Operator Surface--><g class="cluster" data-qualified-name="Operator Surface" data-source-line="9" id="ent0003"><path d="M497.6563,234.4811 L686.7033,234.4811 A5.8594,5.8594 0 0 1 690.6095,238.3874 L701.547,273.6497 L742.9688,273.6497 A3.9063,3.9063 0 0 1 746.875,277.556 L746.875,455.5749 A3.9063,3.9063 0 0 1 742.9688,459.4811 L497.6563,459.4811 A3.9063,3.9063 0 0 1 493.75,455.5749 L493.75,238.3874 A3.9063,3.9063 0 0 1 497.6563,234.4811" fill="none" style="stroke:#000000;stroke-width:2.3438;"/><line style="stroke:#000000;stroke-width:2.3438;" x1="493.75" x2="701.547" y1="273.6497" y2="273.6497"/><text fill="#000000" font-family="sans-serif" font-size="21.875" font-weight="bold" lengthAdjust="spacing" textLength="187.4845" x="500" y="260.9904">Operator Surface</text></g><!--cluster Catalog Expansion--><g class="cluster" data-qualified-name="Catalog Expansion" data-source-line="13" id="ent0005"><path d="M360.1563,489.1686 L562.793,489.1686 A5.8594,5.8594 0 0 1 566.6993,493.0749 L577.6368,528.3372 L908.5938,528.3372 A3.9063,3.9063 0 0 1 912.5,532.2435 L912.5,801.6686 A3.9063,3.9063 0 0 1 908.5938,805.5749 L360.1563,805.5749 A3.9063,3.9063 0 0 1 356.25,801.6686 L356.25,493.0749 A3.9063,3.9063 0 0 1 360.1563,489.1686" fill="none" style="stroke:#000000;stroke-width:2.3438;"/><line style="stroke:#000000;stroke-width:2.3438;" x1="356.25" x2="577.6368" y1="528.3372" y2="528.3372"/><text fill="#000000" font-family="sans-serif" font-size="21.875" font-weight="bold" lengthAdjust="spacing" textLength="201.0743" x="362.5" y="515.6779">Catalog Expansion</text></g><!--cluster Download + Validation--><g class="cluster" data-qualified-name="Download . Validation" data-source-line="19" id="ent0009"><path d="M25.7813,654.7936 L271.4405,654.7936 A5.8594,5.8594 0 0 1 275.3468,658.6999 L286.2843,693.9622 L339.8438,693.9622 A3.9063,3.9063 0 0 1 343.75,697.8685 L343.75,1318.0749 A3.9063,3.9063 0 0 1 339.8438,1321.9811 L25.7813,1321.9811 A3.9063,3.9063 0 0 1 21.875,1318.0749 L21.875,658.6999 A3.9063,3.9063 0 0 1 25.7813,654.7936" fill="none" style="stroke:#000000;stroke-width:2.3438;"/><line style="stroke:#000000;stroke-width:2.3438;" x1="21.875" x2="286.2843" y1="693.9622" y2="693.9622"/><text fill="#000000" font-family="sans-serif" font-size="21.875" font-weight="bold" lengthAdjust="spacing" textLength="244.0968" x="28.125" y="681.3029">Download + Validation</text></g><!--cluster Plot Generation--><g class="cluster" data-qualified-name="Plot Generation" data-source-line="26" id="ent0014"><path d="M416.4063,1171.9811 L588.9541,1171.9811 A5.8594,5.8594 0 0 1 592.8603,1175.8874 L603.7978,1211.1497 L924.2188,1211.1497 A3.9063,3.9063 0 0 1 928.125,1215.056 L928.125,1629.0124 A3.9063,3.9063 0 0 1 924.2188,1632.9186 L416.4063,1632.9186 A3.9063,3.9063 0 0 1 412.5,1629.0124 L412.5,1175.8874 A3.9063,3.9063 0 0 1 416.4063,1171.9811" fill="none" style="stroke:#000000;stroke-width:2.3438;"/><line style="stroke:#000000;stroke-width:2.3438;" x1="412.5" x2="603.7978" y1="1211.1497" y2="1211.1497"/><text fill="#000000" font-family="sans-serif" font-size="21.875" font-weight="bold" lengthAdjust="spacing" textLength="170.9853" x="418.75" y="1198.4904">Plot Generation</text></g><!--cluster Reporting + Publish--><g class="cluster" data-qualified-name="Reporting . Publish" data-source-line="33" id="ent0019"><path d="M121.0938,1693.8561 L335.8328,1693.8561 A5.8594,5.8594 0 0 1 339.7391,1697.7624 L350.6766,1733.0247 L692.9688,1733.0247 A3.9063,3.9063 0 0 1 696.875,1736.931 L696.875,2019.6374 A3.9063,3.9063 0 0 1 692.9688,2023.5436 L121.0938,2023.5436 A3.9063,3.9063 0 0 1 117.1875,2019.6374 L117.1875,1697.7624 A3.9063,3.9063 0 0 1 121.0938,1693.8561" fill="none" style="stroke:#000000;stroke-width:2.3438;"/><line style="stroke:#000000;stroke-width:2.3438;" x1="117.1875" x2="350.6766" y1="1733.0247" y2="1733.0247"/><text fill="#000000" font-family="sans-serif" font-size="21.875" font-weight="bold" lengthAdjust="spacing" textLength="213.1766" x="123.4375" y="1720.3654">Reporting + Publish</text></g><!--cluster Regression Checks--><g class="cluster" data-qualified-name="Regression Checks" data-source-line="39" id="ent0023"><path d="M763.2813,279.0124 L967.9305,279.0124 A5.8594,5.8594 0 0 1 971.8367,282.9186 L982.7742,318.181 L1055.4688,318.181 A3.9063,3.9063 0 0 1 1059.375,322.0872 L1059.375,411.0436 A3.9063,3.9063 0 0 1 1055.4688,414.9499 L763.2813,414.9499 A3.9063,3.9063 0 0 1 759.375,411.0436 L759.375,282.9186 A3.9063,3.9063 0 0 1 763.2813,279.0124" fill="none" style="stroke:#000000;stroke-width:2.3438;"/><line style="stroke:#000000;stroke-width:2.3438;" x1="759.375" x2="982.7742" y1="318.181" y2="318.181"/><text fill="#000000" font-family="sans-serif" font-size="21.875" font-weight="bold" lengthAdjust="spacing" textLength="203.0867" x="765.625" y="305.5216">Regression Checks</text></g><!--entity operator--><g class="entity" data-qualified-name="operator" data-source-line="7" id="ent0002"><ellipse cx="620.6108" cy="82.1374" fill="#F1F1F1" rx="12.5" ry="12.5" style="stroke:#181818;stroke-width:0.7813;"/><path d="M620.6108,94.6374 L620.6108,136.8249 M600.2983,107.1374 L640.9233,107.1374 M620.6108,136.8249 L600.2983,160.2624 M620.6108,136.8249 L640.9233,160.2624" fill="none" style="stroke:#181818;stroke-width:0.7813;"/><text fill="#000000" font-family="sans-serif" font-size="21.875" lengthAdjust="spacing" textLength="94.3465" x="573.4375" y="185.9904">Operator</text></g><g class="entity" data-qualified-name="GMN43" data-source-line="64" id="ent0044"><path d="M987.5,896.9811 L987.5,939.9499 L324.2767,946.1999 L987.5,952.4499 L987.5,995.6031 A0,0 0 0 0 987.5,995.6031 L1336.8018,995.6031 A0,0 0 0 0 1336.8018,995.6031 L1336.8018,912.6061 L1321.1768,896.9811 L987.5,896.9811 A0,0 0 0 0 987.5,896.9811" fill="#FAFAFA" style="stroke:#181818;stroke-width:0.7813;"/><path d="M1321.1768,896.9811 L1321.1768,912.6061 L1336.8018,912.6061 L1321.1768,896.9811" fill="#FAFAFA" style="stroke:#181818;stroke-width:0.7813;"/><text fill="#000000" font-family="sans-serif" font-size="20.3125" lengthAdjust="spacing" textLength="290.0018" x="996.875" y="926.5077">Resume mode skips valid files.</text><text fill="#000000" font-family="sans-serif" font-size="20.3125" lengthAdjust="spacing" textLength="230.8315" x="996.875" y="954.1734">Empty CSVs are deleted.</text><text fill="#000000" font-family="sans-serif" font-size="20.3125" lengthAdjust="spacing" textLength="316.4893" x="996.875" y="981.839">Latin-1 fallback happens on read.</text></g><g class="entity" data-qualified-name="GMN46" data-source-line="70" id="ent0047"><path d="M711.7188,1744.6374 L711.7188,1787.6061 L684.1797,1793.8561 L711.7188,1800.1061 L711.7188,1843.2593 A0,0 0 0 0 711.7188,1843.2593 L1094.8206,1843.2593 A0,0 0 0 0 1094.8206,1843.2593 L1094.8206,1760.2624 L1079.1956,1744.6374 L711.7188,1744.6374 A0,0 0 0 0 711.7188,1744.6374" fill="#FAFAFA" style="stroke:#181818;stroke-width:0.7813;"/><path d="M1079.1956,1744.6374 L1079.1956,1760.2624 L1094.8206,1760.2624 L1079.1956,1744.6374" fill="#FAFAFA" style="stroke:#181818;stroke-width:0.7813;"/><text fill="#000000" font-family="sans-serif" font-size="20.3125" lengthAdjust="spacing" textLength="350.2894" x="721.0938" y="1774.164">The repo-root README PNGs are not</text><text fill="#000000" font-family="sans-serif" font-size="20.3125" lengthAdjust="spacing" textLength="298.1065" x="721.0938" y="1801.8296">overwritten by refresh.py itself.</text><text fill="#000000" font-family="sans-serif" font-size="20.3125" lengthAdjust="spacing" textLength="345.1097" x="721.0938" y="1829.4953">Publish them intentionally from viz/.</text></g><!--entity flags--><g class="entity" data-qualified-name="Operator Surface.flags" data-source-line="10" id="ent0004"><rect fill="#F1F1F1" height="166.0495" rx="3.9063" ry="3.9063" style="stroke:#181818;stroke-width:0.7813;" width="226.89" x="507.0313" y="281.3561"/><rect fill="#F1F1F1" height="15.625" style="stroke:#181818;stroke-width:0.7813;" width="23.4375" x="702.6712" y="289.1686"/><rect fill="#F1F1F1" height="3.125" style="stroke:#181818;stroke-width:0.7813;" width="6.25" x="699.5462" y="292.2936"/><rect fill="#F1F1F1" height="3.125" style="stroke:#181818;stroke-width:0.7813;" width="6.25" x="699.5462" y="298.5436"/><text fill="#000000" font-family="sans-serif" font-size="21.875" lengthAdjust="spacing" textLength="91.5903" x="530.4688" y="335.9904">CLI Flags</text><text fill="#000000" font-family="sans-serif" font-size="21.875" lengthAdjust="spacing" textLength="92.2465" x="530.4688" y="365.784">--resume</text><text fill="#000000" font-family="sans-serif" font-size="21.875" lengthAdjust="spacing" textLength="164.39" x="530.4688" y="395.5776">--skip-download</text><text fill="#000000" font-family="sans-serif" font-size="21.875" lengthAdjust="spacing" textLength="89.4246" x="530.4688" y="425.3713">--skip-viz</text></g><!--entity doc--><g class="entity" data-qualified-name="Catalog Expansion.doc" data-source-line="14" id="ent0006"><rect fill="#F1F1F1" height="76.6686" rx="3.9063" ry="3.9063" style="stroke:#181818;stroke-width:0.7813;" width="213.1963" x="368.75" y="716.5124"/><rect fill="#F1F1F1" height="15.625" style="stroke:#181818;stroke-width:0.7813;" width="23.4375" x="550.6963" y="724.3249"/><rect fill="#F1F1F1" height="3.125" style="stroke:#181818;stroke-width:0.7813;" width="6.25" x="547.5713" y="727.4499"/><rect fill="#F1F1F1" height="3.125" style="stroke:#181818;stroke-width:0.7813;" width="6.25" x="547.5713" y="733.6999"/><text fill="#000000" font-family="sans-serif" font-size="21.875" lengthAdjust="spacing" textLength="150.6963" x="392.1875" y="771.1466">doc_urls.pickle</text></g><!--entity load--><g class="entity" data-qualified-name="Catalog Expansion.load" data-source-line="15" id="ent0007"><rect fill="#F1F1F1" height="76.6686" rx="3.9063" ry="3.9063" style="stroke:#181818;stroke-width:0.7813;" width="215.515" x="596.875" y="536.0436"/><rect fill="#F1F1F1" height="15.625" style="stroke:#181818;stroke-width:0.7813;" width="23.4375" x="781.14" y="543.8561"/><rect fill="#F1F1F1" height="3.125" style="stroke:#181818;stroke-width:0.7813;" width="6.25" x="778.015" y="546.9811"/><rect fill="#F1F1F1" height="3.125" style="stroke:#181818;stroke-width:0.7813;" width="6.25" x="778.015" y="553.2311"/><text fill="#000000" font-family="sans-serif" font-size="21.875" lengthAdjust="spacing" textLength="153.015" x="620.3125" y="590.6779">load_doc_urls()</text></g><!--entity iter--><g class="entity" data-qualified-name="Catalog Expansion.iter" data-source-line="16" id="ent0008"><rect fill="#F1F1F1" height="76.6686" rx="3.9063" ry="3.9063" style="stroke:#181818;stroke-width:0.7813;" width="288.9273" x="610.1563" y="716.5124"/><rect fill="#F1F1F1" height="15.625" style="stroke:#181818;stroke-width:0.7813;" width="23.4375" x="867.8335" y="724.3249"/><rect fill="#F1F1F1" height="3.125" style="stroke:#181818;stroke-width:0.7813;" width="6.25" x="864.7085" y="727.4499"/><rect fill="#F1F1F1" height="3.125" style="stroke:#181818;stroke-width:0.7813;" width="6.25" x="864.7085" y="733.6999"/><text fill="#000000" font-family="sans-serif" font-size="21.875" lengthAdjust="spacing" textLength="226.4273" x="633.5938" y="771.1466">iter_candidate_paths()</text></g><!--entity download--><g class="entity" data-qualified-name="Download . Validation.download" data-source-line="20" id="ent0010"><rect fill="#F1F1F1" height="76.6686" rx="3.9063" ry="3.9063" style="stroke:#181818;stroke-width:0.7813;" width="210.8994" x="113.2813" y="907.9186"/><rect fill="#F1F1F1" height="15.625" style="stroke:#181818;stroke-width:0.7813;" width="23.4375" x="292.9307" y="915.7311"/><rect fill="#F1F1F1" height="3.125" style="stroke:#181818;stroke-width:0.7813;" width="6.25" x="289.8057" y="918.8561"/><rect fill="#F1F1F1" height="3.125" style="stroke:#181818;stroke-width:0.7813;" width="6.25" x="289.8057" y="925.1061"/><text fill="#000000" font-family="sans-serif" font-size="21.875" lengthAdjust="spacing" textLength="148.3994" x="136.7188" y="962.5529">download_all()</text></g><!--entity bases--><g class="entity" data-qualified-name="Download . Validation.bases" data-source-line="21" id="ent0011"><rect fill="#F1F1F1" height="106.4622" rx="3.9063" ry="3.9063" style="stroke:#181818;stroke-width:0.7813;" width="296.4303" x="34.375" y="701.6686"/><rect fill="#F1F1F1" height="15.625" style="stroke:#181818;stroke-width:0.7813;" width="23.4375" x="299.5553" y="709.4811"/><rect fill="#F1F1F1" height="3.125" style="stroke:#181818;stroke-width:0.7813;" width="6.25" x="296.4303" y="712.6061"/><rect fill="#F1F1F1" height="3.125" style="stroke:#181818;stroke-width:0.7813;" width="6.25" x="296.4303" y="718.8561"/><text fill="#000000" font-family="sans-serif" font-size="21.875" lengthAdjust="spacing" textLength="150.2369" x="57.8125" y="756.3029">PUBLIC_BASES</text><text fill="#000000" font-family="sans-serif" font-size="21.875" lengthAdjust="spacing" textLength="233.9303" x="57.8125" y="786.0965">public_csvs + public_v2</text></g><!--entity validate--><g class="entity" data-qualified-name="Download . Validation.validate" data-source-line="22" id="ent0012"><rect fill="#F1F1F1" height="76.6686" rx="3.9063" ry="3.9063" style="stroke:#181818;stroke-width:0.7813;" width="258.543" x="72.6563" y="1053.2311"/><rect fill="#F1F1F1" height="15.625" style="stroke:#181818;stroke-width:0.7813;" width="23.4375" x="299.9492" y="1061.0436"/><rect fill="#F1F1F1" height="3.125" style="stroke:#181818;stroke-width:0.7813;" width="6.25" x="296.8242" y="1064.1686"/><rect fill="#F1F1F1" height="3.125" style="stroke:#181818;stroke-width:0.7813;" width="6.25" x="296.8242" y="1070.4186"/><text fill="#000000" font-family="sans-serif" font-size="21.875" lengthAdjust="spacing" textLength="196.043" x="96.0938" y="1107.8654">is_non_empty_csv()</text></g><!--entity data--><g class="entity" data-qualified-name="Download . Validation.data" data-source-line="23" id="ent0013"><path d="M170.3125,1220.4186 C170.3125,1204.7936 243.3701,1204.7936 243.3701,1204.7936 C243.3701,1204.7936 316.4277,1204.7936 316.4277,1220.4186 L316.4277,1294.0684 C316.4277,1309.6934 243.3701,1309.6934 243.3701,1309.6934 C243.3701,1309.6934 170.3125,1309.6934 170.3125,1294.0684 L170.3125,1220.4186" fill="#F1F1F1" style="stroke:#181818;stroke-width:0.7813;"/><path d="M170.3125,1220.4186 C170.3125,1236.0436 243.3701,1236.0436 243.3701,1236.0436 C243.3701,1236.0436 316.4277,1236.0436 316.4277,1220.4186" fill="none" style="stroke:#181818;stroke-width:0.7813;"/><text fill="#000000" font-family="sans-serif" font-size="21.875" lengthAdjust="spacing" textLength="54.0311" x="185.9375" y="1265.6779">data/</text><text fill="#000000" font-family="sans-serif" font-size="21.875" lengthAdjust="spacing" textLength="114.8652" x="185.9375" y="1295.4715">CSV corpus</text></g><!--entity selections--><g class="entity" data-qualified-name="Plot Generation.selections" data-source-line="27" id="ent0015"><rect fill="#F1F1F1" height="76.6686" rx="3.9063" ry="3.9063" style="stroke:#181818;stroke-width:0.7813;" width="244.1493" x="671.875" y="1218.8561"/><rect fill="#F1F1F1" height="15.625" style="stroke:#181818;stroke-width:0.7813;" width="23.4375" x="884.7743" y="1226.6686"/><rect fill="#F1F1F1" height="3.125" style="stroke:#181818;stroke-width:0.7813;" width="6.25" x="881.6493" y="1229.7936"/><rect fill="#F1F1F1" height="3.125" style="stroke:#181818;stroke-width:0.7813;" width="6.25" x="881.6493" y="1236.0436"/><text fill="#000000" font-family="sans-serif" font-size="21.875" lengthAdjust="spacing" textLength="181.6493" x="695.3125" y="1273.4904">make_selections()</text></g><!--entity dates--><g class="entity" data-qualified-name="Plot Generation.dates" data-source-line="28" id="ent0016"><rect fill="#F1F1F1" height="76.6686" rx="3.9063" ry="3.9063" style="stroke:#181818;stroke-width:0.7813;" width="218.6431" x="425" y="1218.8561"/><rect fill="#F1F1F1" height="15.625" style="stroke:#181818;stroke-width:0.7813;" width="23.4375" x="612.3931" y="1226.6686"/><rect fill="#F1F1F1" height="3.125" style="stroke:#181818;stroke-width:0.7813;" width="6.25" x="609.2681" y="1229.7936"/><rect fill="#F1F1F1" height="3.125" style="stroke:#181818;stroke-width:0.7813;" width="6.25" x="609.2681" y="1236.0436"/><text fill="#000000" font-family="sans-serif" font-size="21.875" lengthAdjust="spacing" textLength="156.1431" x="448.4375" y="1273.4904">date_columns()</text></g><!--entity plots--><g class="entity" data-qualified-name="Plot Generation.plots" data-source-line="29" id="ent0017"><rect fill="#F1F1F1" height="76.6686" rx="3.9063" ry="3.9063" style="stroke:#181818;stroke-width:0.7813;" width="149.1247" x="460.1563" y="1367.2936"/><rect fill="#F1F1F1" height="15.625" style="stroke:#181818;stroke-width:0.7813;" width="23.4375" x="578.0309" y="1375.1061"/><rect fill="#F1F1F1" height="3.125" style="stroke:#181818;stroke-width:0.7813;" width="6.25" x="574.9059" y="1378.2311"/><rect fill="#F1F1F1" height="3.125" style="stroke:#181818;stroke-width:0.7813;" width="6.25" x="574.9059" y="1384.4811"/><text fill="#000000" font-family="sans-serif" font-size="21.875" lengthAdjust="spacing" textLength="86.6247" x="483.5938" y="1421.9279">plot_all()</text></g><!--entity viz--><g class="entity" data-qualified-name="Plot Generation.viz" data-source-line="30" id="ent0018"><path d="M432.8125,1501.6686 L496.875,1501.6686 A5.8594,5.8594 0 0 1 500.7813,1505.5749 L511.7188,1534.4811 L635.4119,1534.4811 A3.9063,3.9063 0 0 1 639.3181,1538.3874 L639.3181,1616.7246 A3.9063,3.9063 0 0 1 635.4119,1620.6309 L432.8125,1620.6309 A3.9063,3.9063 0 0 1 428.9063,1616.7246 L428.9063,1505.5749 A3.9063,3.9063 0 0 1 432.8125,1501.6686" fill="#F1F1F1" style="stroke:#181818;stroke-width:0.7813;"/><line style="stroke:#181818;stroke-width:0.7813;" x1="428.9063" x2="511.7188" y1="1534.4811" y2="1534.4811"/><text fill="#000000" font-family="sans-serif" font-size="21.875" lengthAdjust="spacing" textLength="35.1748" x="444.5313" y="1568.8029">viz/</text><text fill="#000000" font-family="sans-serif" font-size="21.875" lengthAdjust="spacing" textLength="163.5369" x="444.5313" y="1598.5965">Full PNG corpus</text></g><!--entity latest--><g class="entity" data-qualified-name="Reporting . Publish.latest" data-source-line="34" id="ent0020"><rect fill="#F1F1F1" height="76.6686" rx="3.9063" ry="3.9063" style="stroke:#181818;stroke-width:0.7813;" width="227.3275" x="130.4688" y="1755.5749"/><rect fill="#F1F1F1" height="15.625" style="stroke:#181818;stroke-width:0.7813;" width="23.4375" x="326.5463" y="1763.3874"/><rect fill="#F1F1F1" height="3.125" style="stroke:#181818;stroke-width:0.7813;" width="6.25" x="323.4213" y="1766.5124"/><rect fill="#F1F1F1" height="3.125" style="stroke:#181818;stroke-width:0.7813;" width="6.25" x="323.4213" y="1772.7624"/><text fill="#000000" font-family="sans-serif" font-size="21.875" lengthAdjust="spacing" textLength="164.8275" x="153.9063" y="1810.2091">latest_date_for()</text></g><!--entity summaries--><g class="entity" data-qualified-name="Reporting . Publish.summaries" data-source-line="35" id="ent0021"><rect fill="#F1F1F1" height="106.4622" rx="3.9063" ry="3.9063" style="stroke:#181818;stroke-width:0.7813;" width="293.5866" x="129.6875" y="1904.7936"/><rect fill="#F1F1F1" height="15.625" style="stroke:#181818;stroke-width:0.7813;" width="23.4375" x="392.0241" y="1912.6061"/><rect fill="#F1F1F1" height="3.125" style="stroke:#181818;stroke-width:0.7813;" width="6.25" x="388.8991" y="1915.7311"/><rect fill="#F1F1F1" height="3.125" style="stroke:#181818;stroke-width:0.7813;" width="6.25" x="388.8991" y="1921.9811"/><text fill="#000000" font-family="sans-serif" font-size="21.875" lengthAdjust="spacing" textLength="66.4779" x="153.125" y="1959.4279">stdout</text><text fill="#000000" font-family="sans-serif" font-size="21.875" lengthAdjust="spacing" textLength="231.0866" x="153.125" y="1989.2215">summary + latest lines</text></g><!--entity preview--><g class="entity" data-qualified-name="Reporting . Publish.preview" data-source-line="36" id="ent0022"><rect fill="#F1F1F1" height="106.4622" rx="3.9063" ry="3.9063" style="stroke:#181818;stroke-width:0.7813;" width="298.9678" x="385.1563" y="1740.7311"/><rect fill="#F1F1F1" height="15.625" style="stroke:#181818;stroke-width:0.7813;" width="23.4375" x="652.874" y="1748.5436"/><rect fill="#F1F1F1" height="3.125" style="stroke:#181818;stroke-width:0.7813;" width="6.25" x="649.749" y="1751.6686"/><rect fill="#F1F1F1" height="3.125" style="stroke:#181818;stroke-width:0.7813;" width="6.25" x="649.749" y="1757.9186"/><text fill="#000000" font-family="sans-serif" font-size="21.875" lengthAdjust="spacing" textLength="236.4678" x="408.5938" y="1795.3654">README preview PNGs</text><text fill="#000000" font-family="sans-serif" font-size="21.875" lengthAdjust="spacing" textLength="159.0744" x="408.5938" y="1825.159">manual publish</text></g><!--entity tests--><g class="entity" data-qualified-name="Regression Checks.tests" data-source-line="40" id="ent0024"><rect fill="#F1F1F1" height="76.6686" rx="3.9063" ry="3.9063" style="stroke:#181818;stroke-width:0.7813;" width="272.7836" x="772.6563" y="325.8874"/><rect fill="#F1F1F1" height="15.625" style="stroke:#181818;stroke-width:0.7813;" width="23.4375" x="1014.1898" y="333.6999"/><rect fill="#F1F1F1" height="3.125" style="stroke:#181818;stroke-width:0.7813;" width="6.25" x="1011.0648" y="336.8249"/><rect fill="#F1F1F1" height="3.125" style="stroke:#181818;stroke-width:0.7813;" width="6.25" x="1011.0648" y="343.0749"/><text fill="#000000" font-family="sans-serif" font-size="21.875" lengthAdjust="spacing" textLength="210.2836" x="796.0938" y="380.5216">tests/test_refresh.py</text></g><g class="link" data-entity-1="ent0002" data-entity-2="ent0004" data-link-type="dependency" id="lnk25"><polygon fill="#181818" points="620.3125,281.2248,626.5625,267.1623,620.3125,273.4123,614.0625,267.1623,620.3125,281.2248" style="stroke:#181818;stroke-width:1.5625;"/><path d="M620.3125,192.6903 C620.3125,219.7638 620.3125,242.7046 620.3125,271.8498" fill="none" style="stroke:#181818;stroke-width:1.5625;"/></g><g class="link" data-entity-1="ent0004" data-entity-2="ent0007" data-link-type="dependency" id="lnk26"><polygon fill="#181818" points="689.5999,535.7419,690.0804,520.3605,686.6514,528.5071,678.5048,525.0781,689.5999,535.7419" style="stroke:#181818;stroke-width:1.5625;"/><path d="M653.6597,447.5554 C666.0967,478.0721 676.0688,502.5405 686.0617,527.0602" fill="none" style="stroke:#181818;stroke-width:1.5625;"/></g><g class="link" data-entity-1="ent0007" data-entity-2="ent0006" data-link-type="dependency" id="lnk27"><polygon fill="#181818" points="519.0488,716.115,533.8604,711.9399,525.0593,711.1241,525.875,702.323,519.0488,716.115" style="stroke:#181818;stroke-width:1.5625;"/><path d="M651.9157,612.9762 C633.7973,625.9686 613.505,640.8095 595.3125,654.7936 C569.636,674.5305 548.808,691.4044 526.2614,710.1259" fill="none" style="stroke:#181818;stroke-width:1.5625;"/></g><g class="link" data-entity-1="ent0007" data-entity-2="ent0008" data-link-type="dependency" id="lnk28"><polygon fill="#181818" points="744.1687,715.9223,746.3682,700.6915,742.0487,708.4029,734.3372,704.0835,744.1687,715.9223" style="stroke:#181818;stroke-width:1.5625;"/><path d="M715.0475,612.6331 C723.5716,642.8668 733.0575,676.5124 741.6247,706.8991" fill="none" style="stroke:#181818;stroke-width:1.5625;"/></g><g class="link" data-entity-1="ent0008" data-entity-2="ent0010" data-link-type="dependency" id="lnk29"><polygon fill="#181818" points="324.2731,907.9032,339.6094,909.1738,331.6499,905.3306,335.4932,897.371,324.2731,907.9032" style="stroke:#181818;stroke-width:1.5625;"/><path d="M650.6422,793.1836 C588.3718,815.1983 507.6461,843.6915 435.9375,868.8561 C399.5738,881.6172 368.6161,892.4385 333.1252,904.816" fill="none" style="stroke:#181818;stroke-width:1.5625;"/></g><g class="link" data-entity-1="ent0011" data-entity-2="ent0010" data-link-type="dependency" id="lnk30"><polygon fill="#181818" points="211.7139,907.7741,215.2165,892.7892,210.2491,900.1001,202.9382,895.1328,211.7139,907.7741" style="stroke:#181818;stroke-width:1.5625;"/><path d="M192.7277,808.3032 C198.7527,839.8691 204.5432,870.2062 209.9562,898.5653" fill="none" style="stroke:#181818;stroke-width:1.5625;"/><text fill="#000000" font-family="sans-serif" font-size="20.3125" lengthAdjust="spacing" textLength="219.8424" x="207.8125" y="860.8827">fetches candidate CSVs</text></g><g class="link" data-entity-1="ent0010" data-entity-2="ent0012" data-link-type="dependency" id="lnk31"><polygon fill="#181818" points="206.0482,1052.8413,213.9406,1039.6304,206.9857,1045.0852,201.5309,1038.1304,206.0482,1052.8413" style="stroke:#181818;stroke-width:1.5625;"/><path d="M214.2342,985.1205 C211.7079,1006.0198 209.6946,1022.6752 207.1732,1043.534" fill="none" style="stroke:#181818;stroke-width:1.5625;"/></g><g class="link" data-entity-1="ent0012" data-entity-2="ent0013" data-link-type="dependency" id="lnk32"><polygon fill="#181818" points="230.5372,1204.6812,233.053,1189.4994,228.5741,1197.1194,220.9541,1192.6405,230.5372,1204.6812" style="stroke:#181818;stroke-width:1.5625;"/><path d="M211.1355,1129.9486 C216.8728,1152.048 221.8946,1171.3913 228.1814,1195.6071" fill="none" style="stroke:#181818;stroke-width:1.5625;"/></g><g class="link" data-entity-1="ent0013" data-entity-2="ent0017" data-link-type="dependency" id="lnk33"><polygon fill="#181818" points="460.9251,1367.2874,451.1423,1355.4083,453.9374,1363.7936,445.5521,1366.5886,460.9251,1367.2874" style="stroke:#181818;stroke-width:1.5625;"/><path d="M317.8389,1295.7443 C361.7323,1317.691 408.759,1341.2044 452.5398,1363.0948" fill="none" style="stroke:#181818;stroke-width:1.5625;"/></g><g class="link" data-entity-1="ent0015" data-entity-2="ent0017" data-link-type="dependency" id="lnk34"><polygon fill="#181818" points="599.9271,1367.2874,615.2502,1365.8668,606.7428,1363.469,609.1406,1354.9616,599.9271,1367.2874" style="stroke:#181818;stroke-width:1.5625;"/><path d="M727.6276,1295.7443 C688.454,1317.691 647.1792,1340.8148 608.106,1362.7053" fill="none" style="stroke:#181818;stroke-width:1.5625;"/></g><g class="link" data-entity-1="ent0016" data-entity-2="ent0017" data-link-type="dependency" id="lnk35"><polygon fill="#181818" points="534.375,1367.2206,540.625,1353.1581,534.375,1359.4081,528.125,1353.1581,534.375,1367.2206" style="stroke:#181818;stroke-width:1.5625;"/><path d="M534.375,1296.1214 C534.375,1317.9853 534.375,1336.0909 534.375,1357.8456" fill="none" style="stroke:#181818;stroke-width:1.5625;"/></g><g class="link" data-entity-1="ent0017" data-entity-2="ent0018" data-link-type="dependency" id="lnk36"><polygon fill="#181818" points="534.375,1501.547,540.625,1487.4845,534.375,1493.7345,528.125,1487.4845,534.375,1501.547" style="stroke:#181818;stroke-width:1.5625;"/><path d="M534.375,1444.0155 C534.375,1461.2752 534.375,1472.8664 534.375,1492.172" fill="none" style="stroke:#181818;stroke-width:1.5625;"/></g><g class="link" data-entity-1="ent0013" data-entity-2="ent0020" data-link-type="dependency" id="lnk37"><polygon fill="#181818" points="243.75,1755.2158,250,1741.1533,243.75,1747.4033,237.5,1741.1533,243.75,1755.2158" style="stroke:#181818;stroke-width:1.5625;"/><path d="M243.75,1309.8631 C243.75,1416.8108 243.75,1652.4589 243.75,1745.8408" fill="none" style="stroke:#181818;stroke-width:1.5625;"/></g><g class="link" data-entity-1="ent0020" data-entity-2="ent0021" data-link-type="dependency" id="lnk38"><polygon fill="#181818" points="265.9613,1904.3596,269.276,1889.3319,264.4005,1896.7045,257.0279,1891.8291,265.9613,1904.3596" style="stroke:#181818;stroke-width:1.5625;"/><path d="M251.2779,1832.3409 C255.6296,1853.6852 259.3011,1871.6929 264.0884,1895.1735" fill="none" style="stroke:#181818;stroke-width:1.5625;"/></g><g class="link" data-entity-1="ent0018" data-entity-2="ent0022" data-link-type="dependency" id="lnk39"><polygon fill="#181818" points="534.375,1740.622,540.625,1726.5595,534.375,1732.8095,528.125,1726.5595,534.375,1740.622" style="stroke:#181818;stroke-width:1.5625;"/><path d="M534.375,1620.566 C534.375,1657.5112 534.375,1695.5891 534.375,1731.247" fill="none" style="stroke:#181818;stroke-width:1.5625;"/><text fill="#000000" font-family="sans-serif" font-size="20.3125" lengthAdjust="spacing" textLength="214.1142" x="537.5" y="1673.3827">operator-curated copy</text></g><g class="link" data-entity-1="ent0024" data-entity-2="ent0007" data-link-type="dependency" id="lnk40"><polygon fill="#181818" points="741.6548,535.3717,755.9863,529.7658,747.1476,529.8161,747.0973,520.9774,741.6548,535.3717" style="stroke:#181818;stroke-width:1.5625;"/><path d="M872.781,402.7442 C835.7539,440.1952 785.4064,491.1192 748.2461,528.705" fill="none" style="stroke:#181818;stroke-width:1.5625;stroke-dasharray:10.9375,10.9375;"/></g><g class="link" data-entity-1="ent0024" data-entity-2="ent0008" data-link-type="dependency" id="lnk41"><polygon fill="#181818" points="775.4529,716.3475,787.6779,707.0005,779.197,709.4906,776.7069,701.0098,775.4529,716.3475" style="stroke:#181818;stroke-width:1.5625;"/><path d="M898.8374,402.7531 C884.5108,451.5983 857.1424,539.8875 826.5625,612.6061 C811.3638,648.7484 795.211,680.1635 779.9459,708.1193" fill="none" style="stroke:#181818;stroke-width:1.5625;stroke-dasharray:10.9375,10.9375;"/></g><g class="link" data-entity-1="ent0024" data-entity-2="ent0016" data-link-type="dependency" id="lnk42"><polygon fill="#181818" points="580.8676,1218.7802,595.9163,1215.5625,587.1856,1214.1846,588.5634,1205.4538,580.8676,1218.7802" style="stroke:#181818;stroke-width:1.5625;"/><path d="M919.3177,402.8241 C929.4699,444.0174 943.75,512.6446 943.75,572.7624 C943.75,572.7624 943.75,572.7624 943.75,1093.0749 C943.75,1224.9082 777.5199,1116.7527 657.8125,1171.9811 C630.786,1184.4501 610.7133,1197.0708 588.4491,1213.2655" fill="none" style="stroke:#181818;stroke-width:1.5625;stroke-dasharray:10.9375,10.9375;"/></g><?plantuml-src NLJ1Rjim3BtxAxYSDXHErm6xz32WJTEYGBS5wTRBCXYAJST2P4cGv6Jfi7yVAIkEquijyb7Ke_YeTzQ9JIj0YOFf0lWMWz0YyrkfhN2YXTPeKpREj0Z1TJX2AYlXwlF7aSSteZ9xgJTG2-Kn2p8eX5UfbDddjbihMUQL20AMM3lq3IoaHIKrPfaeWt7mtQ8Jl10UJ5fdcHNbLcmG9WFytBbQb3Y1lnd0hzdJ8zmhiV4hdUUKjskHLyJBviH7AoEgmR6JhxyvVSqRid-Zx3DYfim6vd-iq5uQdT9NfYmwf_pKodAhCEuc7qESkJZYxpz4Y7sCoO2kA8Mk99MCXHMXEOOmT7RqNM895_0Y56yO7zzZXL0gxJ-w65xyl7rwd1MtDy_pvvNkBxae_SvJhcJjFiLTQ-7HHsQ-q4ONsDfmuD2KTTUVZ1J2JU9mcF3gSgLdpozG6cSxFua4o7jMm4AP00-ekJydwgtOOk5HOSdEO_KdHooFBwSqgck707P5p5BMKTbiihysga874sebKRllb8B5juSnFqBEw2tH6XTOc1Umu4lnJQAe-AnGH1QrSSSUHY_ZFbGq5ojDecg5Ez3-7WEMhU_hYP3iAI_dDtTVvs0TxYJkcHUfiXMw4wflXs_wMlg0Domtf5vM7imQBBS-SUJp_6NawVh1cTf3p18Hpd4S5iZpBqdQyHljA9KeBxPOkeCHbSYV12LTHQcSkU0QQWnbG-v1qq2gyDaGmU63XewBFWdB9Gu-MtqRJoeOEMFdHtRyzecfeqE6r9xK2VQSUa21VOBKWUlX8SdBZlvOaL3i8SlYtS5qckxdPCOxEPcz6ZDjg1WdDqq0KuydS1aV77edAmH-OT8WGIqL-Ya5p7dEubs1S0WL5Kui67cYOT7v5R-MQaqgW4POYtGZf027Wc9GLy0dlpt_A1-07msvITwvCpI2INuiktWOxQ8OiqEtTp84rB0-m4b4L2lreMOkQImWDDY2r1JApI5Y1wZfzUS6N8xu_0S0?></g></svg>